<?xml version="1.0" encoding="UTF-8"?>
<svg xmlns="http://www.w3.org/2000/svg" width="512" height="512" viewBox="0 0 24 24" fill="none">
  <title>Fictional Goggles – Book</title>
  <defs>
    <linearGradient id="g" x1="0" y1="0" x2="1" y2="1">
      <stop offset="0%" stop-color="#6366f1"/>
      <stop offset="100%" stop-color="#8b5cf6"/>
    </linearGradient>
  </defs>
  <rect x="3" y="3" width="18" height="18" rx="2.5" fill="url(#g)"/>
  <path d="M7.5 7.5h6.25a2.75 2.75 0 0 1 2.75 2.75v5.25c-.6-.4-1.3-.75-2.25-.75H7.5v-7.25Z" fill="#fff" opacity="0.9"/>
  <path d="M7.5 7.5h6.25a2.75 2.75 0 0 1 2.75 2.75v5.25c-.6-.4-1.3-.75-2.25-.75H7.5" stroke="#fff" stroke-width="1.2" stroke-linecap="round" stroke-linejoin="round" opacity="0.95"/>
  <path d="M7.5 7.5v7.25c.6-.4 1.3-.75 2.25-.75h6.75" stroke="#fff" stroke-width="1.2" stroke-linecap="round" stroke-linejoin="round" opacity="0.95"/>
  <path d="M10 9.25h4.5" stroke="#4f46e5" stroke-width="1.2" stroke-linecap="round"/>
</svg>
